<?xml version="1.0" encoding="UTF-8" standalone="no"?>
<!-- Created with Inkscape (http://www.inkscape.org/) -->

<svg
   version="1.1"
   id="svg1"
   width="1024"
   height="1024"
   viewBox="0 0 1024 1024"
   sodipodi:docname="icon.svg"
   inkscape:version="1.4.2 (f4327f4, 2025-05-13)"
   xmlns:inkscape="http://www.inkscape.org/namespaces/inkscape"
   xmlns:sodipodi="http://sodipodi.sourceforge.net/DTD/sodipodi-0.dtd"
   xmlns="http://www.w3.org/2000/svg"
   xmlns:svg="http://www.w3.org/2000/svg">
  <defs
     id="defs1" />
  <sodipodi:namedview
     id="namedview1"
     pagecolor="#ffffff"
     bordercolor="#000000"
     borderopacity="0.25"
     inkscape:showpageshadow="2"
     inkscape:pageopacity="0.0"
     inkscape:pagecheckerboard="0"
     inkscape:deskcolor="#d1d1d1"
     inkscape:zoom="0.63085938"
     inkscape:cx="512"
     inkscape:cy="512"
     inkscape:window-width="1536"
     inkscape:window-height="890"
     inkscape:window-x="-6"
     inkscape:window-y="-6"
     inkscape:window-maximized="1"
     inkscape:current-layer="g1" />
  <g
     inkscape:groupmode="layer"
     inkscape:label="Image"
     id="g1">
    <path
       style="fill:#000000"
       d="m 486.82972,933.49897 c -3.025,-0.17766 -11.575,-1.0291 -19,-1.89209 -70.38793,-8.18098 -130.97996,-31.21109 -189.8063,-72.14246 -15.12814,-10.52616 -36.93333,-28.60692 -38.41112,-31.85031 -2.44368,-5.36328 2.41918,-10.59227 8.44429,-9.08007 1.37926,0.34618 6.72995,4.24655 11.89044,8.6675 11.93866,10.22777 35.32293,27.00543 48.88269,35.07218 14.65592,8.71885 52.13991,26.86541 66.5,32.19364 47.95995,17.79527 105.33679,26.82762 151.66878,23.87593 18.57978,-1.18367 41.14035,-4.05497 52.64327,-6.69995 9.46043,-2.17532 13.81604,-1.91421 16.73341,1.00316 1.35,1.35 2.45454,3.56734 2.45454,4.92742 0,4.30521 -3.9054,6.18352 -18.73859,9.01235 -32.80191,6.25564 -64.47531,8.60333 -93.26141,6.9127 z m 54.5,-48.37563 c -83.16741,-22.75615 -106.70267,-28.97798 -117.24059,-30.994 l -6.2406,-1.1939 -5.33314,3.67308 c -12.29962,8.47107 -28.34364,8.85048 -43.77744,1.03524 -6.78849,-3.43749 -14.27646,-12.10155 -16.08857,-18.6155 l -1.48411,-5.33489 -8.91778,-2.34398 c -4.90477,-1.28919 -27.59277,-7.67417 -50.41777,-14.18884 -22.825,-6.51468 -53.2,-15.06637 -67.5,-19.00377 -43.64569,-12.0175 -49.89862,-13.77922 -52.7021,-14.84839 -3.15134,-1.20184 -5.7979,-5.75602 -5.7979,-9.97698 0,-3.31281 5.17911,-10.48851 11.57879,-16.0425 2.15667,-1.87167 6.98733,-6.2782 10.7348,-9.7923 6.75028,-6.3299 6.80325,-6.4206 5.70075,-9.76121 -2.38556,-7.22833 -2.14946,-7.4785 53.03462,-56.19311 44.98714,-39.7131 91.31713,-81.19609 106.45104,-95.31425 7.15,-6.67011 14.80917,-13.21411 17.02037,-14.54223 6.4468,-3.87215 20.38751,-5.84043 36.47963,-5.15055 22.26854,0.95467 43.62016,6.52592 65.81494,17.173 23.10616,11.08428 36.88877,20.86953 53.98385,38.32695 l 10.29879,10.51707 14.13162,-2.69391 c 7.7724,-1.48165 14.30756,-2.86985 14.52259,-3.08488 0.73,-0.72999 -7.8806,-15.06385 -11.07457,-18.43558 -1.74747,-1.84472 -6.55222,-5.63085 -10.67722,-8.41363 -28.8288,-19.44828 -61.69896,-57.12356 -76.10668,-87.23233 -10.42523,-21.78629 -14.4058,-38.41853 -14.35971,-60 0.0278,-13.01127 0.40658,-16.52469 2.85702,-26.5 6.85037,-27.88673 3.65098,-42.66725 -10.63335,-49.12372 -4.94895,-2.23691 -6.34227,-2.37218 -23.75728,-2.30646 -10.175,0.0384 -23.78676,0.42025 -30.24835,0.84855 -14.16157,0.93868 -15.20233,1.50337 -25.03178,13.58163 l -6.91741,8.5 0.49062,11 c 0.64288,14.41387 -0.71889,28.29487 -3.82853,39.02559 -2.82439,9.74636 -10.56718,26.80065 -15.49299,34.12487 -3.66443,5.44867 -8.95085,11.34954 -10.16773,11.34954 -0.4421,0 -0.80383,-6.11006 -0.80383,-13.57791 0,-12.91884 -1.5432,-36.25935 -2.60399,-39.38474 -0.31307,-0.9224 -1.77586,0.73974 -3.96028,4.5 l -3.46384,5.96265 0.61439,16 c 1.57992,41.14463 -6.74928,66.16301 -33.45011,100.47391 -12.3179,15.82867 -32.46276,35.38892 -50.79961,49.3254 -11.46609,8.71452 -15.24238,8.2753 -17.38629,-2.02222 -1.83612,-8.81922 -0.67872,-42.75586 1.97049,-57.77709 6.90222,-39.13617 21.58948,-73.21201 38.99704,-90.47679 8.71177,-8.64033 17.78783,-13.84915 33.78484,-19.38939 13.43509,-4.65297 15.66246,-5.89256 18.14329,-10.09727 2.08507,-3.53392 2.08511,-3.53655 0.0582,-3.53655 -3.21681,0 -29.8065,8.90484 -36.27474,12.14835 -3.22882,1.61909 -6.08717,2.72723 -6.35188,2.46251 -0.95622,-0.95621 2.83552,-10.34518 7.12741,-17.64865 12.92154,-21.98843 32.16394,-36.00822 58.95106,-42.95105 13.92342,-3.60874 17.49126,-5.00217 19.98882,-7.80666 1.68503,-1.8921 0.83888,-1.77278 -9.76932,1.37768 -10.93145,3.24645 -11.7885,3.35903 -14.58034,1.91532 -1.65636,-0.85654 -3.25129,-2.66981 -3.61182,-4.10628 -1.65195,-6.58191 5.79361,-19.53168 18.61666,-32.37921 16.89214,-16.9244 37.81972,-29.26125 63.6669,-37.53178 l 14.8331,-4.74627 8,-8.28413 c 9.58677,-9.92726 17.43344,-15.73922 28.64881,-21.21992 15.52645,-7.58742 26.32494,-10.1873 42.41753,-10.21255 16.8636,-0.0265 29.28576,2.78487 42.44849,9.60676 15.36226,7.96185 22.5441,16.14691 46.18218,52.63332 22.62447,34.92186 24.44002,36.95988 49.92621,56.0439 34.12599,25.55348 49.52394,45.85515 96.85405,127.69866 8.42872,14.575 16.09586,27.625 17.0381,29 0.94224,1.375 5.21192,8.575 9.48819,16 11.01739,19.1298 26.95289,42.36228 44.58446,65 19.51551,25.05656 27.95732,35.01448 33.90507,39.99422 5.48987,4.59638 6.84681,8.07499 4.52949,11.61167 -2.6301,4.01404 -5.93389,3.05751 -20.90595,-6.0528 -12.03667,-7.32415 -27.86375,-14.64907 -29.05254,-13.44578 -0.91266,0.92379 55.72023,78.07567 90.43205,123.19701 6.5163,8.47042 7.28442,11.41512 3.86866,14.83089 -1.99061,1.9906 -2.85408,2.09813 -12.75,1.58786 -18.85764,-0.97239 -36.31193,-7.72538 -50.95406,-19.71391 -6.60707,-5.40967 -7.79785,-6.00916 -11.93611,-6.00916 -6.60948,0 -16.57758,-2.66299 -25.22463,-6.73879 -5.75011,-2.71033 -9.30531,-5.35931 -15.23756,-11.35352 l -7.73756,-7.81837 -3.43003,4.20534 c -1.88652,2.31294 -10.53617,12.98034 -19.22146,23.70534 -8.68528,10.725 -29.98486,36.62857 -47.3324,57.56349 -17.34755,20.93492 -38.96599,47.12142 -48.04099,58.19222 -17.08966,20.84807 -20.01283,23.37644 -26.77024,23.15473 -1.50137,-0.0493 -38.72976,-9.93984 -82.72976,-21.97905 z m 106.13423,-20.68139 c 23.98073,-29.61037 46.38512,-56.78955 74.87856,-90.83657 16.39887,-19.59513 26.15752,-31.64698 35.6273,-43.99941 0.50646,-0.66062 -0.57482,-2.73019 -2.7606,-5.28378 -3.05554,-3.5697 -3.82522,-4.00571 -5.14408,-2.91402 -1.91078,1.58165 -11.95525,13.66188 -47.21461,56.78378 -48.32775,59.10443 -80.23212,96.02368 -85.20085,98.59311 -4.00884,2.07305 -5.20858,1.71406 -25.31995,-7.57641 -40.92601,-18.90582 -78.38415,-32.91833 -101.95467,-38.13965 -30.94075,-6.85398 -52.83014,-6.53478 -83.49217,1.21752 -21.83831,5.52139 -22.89385,5.39324 -27.84554,-3.38069 -8.51088,-15.08045 -39.29862,-34.11725 -73.70762,-45.57519 -27.4898,-9.1539 -55.79264,-15.36427 -91.75875,-20.13423 -14.61896,-1.93882 -16.00249,-1.97433 -19.12862,-0.49088 -1.85342,0.87951 -4.38999,2.68498 -5.63682,4.01217 l -2.26695,2.41306 2.69559,1.02486 c 1.48258,0.56368 13.36058,3.98787 26.39557,7.60932 28.18816,7.83138 121.26622,34.51552 132.80476,38.07322 4.45764,1.37442 9.52931,3.36526 11.2704,4.42407 3.20122,1.94678 3.563,2.56056 6.65167,11.28485 3.25827,9.20336 10.24793,14.74684 21.13054,16.7586 8.82758,1.63187 14.40122,-0.1643 20.92923,-6.74469 4.37104,-4.40612 5.93935,-5.36904 8.74454,-5.36904 3.48357,0 40.5302,9.17958 80.16884,19.86459 12.1,3.26168 34.825,9.33425 50.5,13.49459 15.675,4.16034 38.4,10.45217 50.5,13.98185 12.1,3.52968 23.41298,6.47191 25.13996,6.53829 2.94064,0.11302 4.46373,-1.51385 23.99427,-25.62932 z m -46.11599,-11.92426 c -0.39311,-3.67085 -0.93859,-7.25757 -1.21216,-7.97049 -0.98072,-2.55573 -35.6474,-17.14555 -60.30608,-25.38041 -32.09323,-10.71767 -51.31716,-14.69634 -75.70017,-15.66724 -17.45881,-0.69519 -29.57596,0.58604 -41.79983,4.41978 -8.82811,2.76875 -21.5,8.7839 -21.5,10.20574 0,2.09638 6.2426,1.96251 17.52977,-0.37594 45.57272,-9.44162 81.01579,-3.30705 148.47023,25.69758 9.625,4.13864 21.325,9.33563 26,11.54887 4.675,2.21325 8.66492,4.06285 8.8665,4.11023 0.20157,0.0474 0.0449,-2.91728 -0.34826,-6.58812 z m 25.62383,-5.07574 c 12.39464,-13.91047 44.43669,-52.04576 72.46902,-86.25 11.04353,-13.475 25.54884,-31.01877 32.23403,-38.98616 6.68518,-7.96739 12.15488,-15.29781 12.15488,-16.28984 0,-2.24409 -3.74465,-9.724 -4.8681,-9.724 -1.17211,0 -10.54043,10.07433 -18.13344,19.5 -11.92273,14.80042 -88.97308,106.69412 -98.93976,118 -8.56745,9.71864 -9.07707,10.85246 -7.8715,17.51279 1.12944,6.23967 1.59276,7.98721 2.11765,7.98721 0.20219,0 5.07894,-5.2875 10.83722,-11.75 z m -18.40422,-19 c 1.07768,-0.9625 5.96354,-6.7 10.85748,-12.75 4.89394,-6.05 21.51722,-26.075 36.94062,-44.5 15.4234,-18.425 35.14637,-42.05 43.82881,-52.5 8.68244,-10.45 18.72668,-22.51526 22.32053,-26.81169 l 6.53429,-7.81168 -5.85979,-8.54442 c -3.22288,-4.69942 -7.48671,-10.01576 -9.47517,-11.81408 -3.95465,-3.57651 -13.92304,-9.39545 -20.67525,-12.06895 l -4.29063,-1.69885 -6.70937,6.42571 c -7.32471,7.01503 -11.33234,9.742 -18.20937,12.39043 -2.475,0.95316 -5.79193,2.90313 -7.37097,4.33327 -3.65707,3.31224 -32.49241,42.14964 -37.02101,49.86242 -0.58141,0.99022 1.91259,1.23958 11.57545,1.15737 6.77409,-0.0576 13.49494,0.35329 14.93521,0.91316 3.03246,1.1788 6.8883,5.70077 6.86601,8.05217 -0.0425,4.47853 -0.55947,4.5675 -26.68387,4.59194 -23.44038,0.0219 -24.99281,0.13899 -28.30082,2.13399 -20.23661,12.20437 -29.4969,18.5267 -35.23226,24.0543 -7.24184,6.97952 -9.24184,7.52604 -11.67538,3.1904 -3.38121,-6.02405 3.27783,-15.95407 16.70946,-24.9173 4.234,-2.82544 7.92318,-5.35949 8.19818,-5.63122 1.02164,-1.0095 -9.70833,0.91858 -15.59405,2.8021 -3.35172,1.07261 -9.38864,3.98145 -13.41537,6.46409 -4.02673,2.48265 -7.9219,4.28344 -8.65595,4.00176 -2.55137,-0.97905 -1.45503,-6.264 2.32738,-11.21921 2.0141,-2.63862 4.6016,-5.58766 5.75,-6.55342 3.9766,-3.34417 12.44367,-5.75184 23.82144,-6.7738 18.85456,-1.69352 30.91974,-4.08993 33.24269,-6.60272 1.87095,-2.02384 38.23861,-51.40565 39.87429,-54.14328 0.41742,-0.69863 -0.78483,-3.41595 -2.82099,-6.376 -1.95163,-2.83718 -4.47529,-8.21001 -5.60812,-11.93962 l -2.0597,-6.78112 -7.05348,-1.59287 c -9.13066,-2.06197 -9.22382,-2.05321 -10.86927,1.02134 -2.54924,4.7633 -10.78706,11.23573 -16.65428,13.0852 -5.1913,1.63642 -6.78342,3.03786 -24.17097,21.27619 l -18.61362,19.52439 10.84041,0.5 c 10.35788,0.47774 10.94767,0.62489 13.25,3.30576 1.32527,1.54317 2.40959,3.4453 2.40959,4.22695 0,4.30037 -14.51962,7.04951 -31.59665,5.9825 l -11.11585,-0.69454 -12.61897,5.18844 c -13.85897,5.69828 -20.99046,10.19076 -30.33198,19.10763 -3.38989,3.23579 -7.07687,5.88326 -8.19329,5.88326 -2.51696,0 -5.14326,-3.58805 -5.14326,-7.02672 0,-4.85153 7.08208,-13.73007 17.25,-21.62568 1.5125,-1.17449 2.75061,-2.29568 2.75136,-2.49152 0.004,-1.17188 -11.78156,0.57844 -13.38814,1.98824 -1.6167,1.41868 -40.97738,45.45976 -64.48744,72.15568 -4.11709,4.675 -10.21716,11.37547 -13.5557,14.88994 -3.33854,3.51446 -5.17008,6.03491 -4.07008,5.60099 20.90676,-8.24715 29.87948,-9.89583 54,-9.92218 19.75044,-0.0216 26.73531,0.74446 46.5,5.09972 21.64304,4.76916 58.10411,17.72618 86.5,30.73915 5.5,2.52049 10.51265,4.58488 11.13922,4.58754 0.62657,0.003 2.02095,-0.78266 3.09863,-1.74516 z m -231.83774,-24.5 c -2.15637,-4.14596 -11.94047,-15.54156 -17.19687,-20.02931 -12.54629,-10.71161 -35.57679,-22.83739 -56.25517,-29.61887 -20.1181,-6.59774 -46.16039,-10.80892 -78.53252,-12.69912 l -11.58446,-0.67642 -2.30726,3.24026 c -3.3435,4.69551 -5.75089,3.95273 32.61,10.06157 54.39195,8.66175 105.82717,27.95948 128.86617,48.34869 4.64086,4.1071 6.05093,4.54716 4.40011,1.3732 z m 41.76889,-38.5 c 15.81728,-18.0125 39.34995,-44.67249 52.29484,-59.24442 12.94489,-14.57194 30.82184,-35.00722 39.72655,-45.41174 l 16.1904,-18.91731 -5.97756,-6.58826 c -14.57096,-16.05964 -30.38667,-27.59732 -52.32177,-38.16912 -25.25984,-12.17418 -47.76047,-17.44224 -71.45365,-16.72938 -20.11468,0.60518 -16.87648,-1.49939 -59.78361,38.85464 -36.44156,34.27318 -87.74338,80.27049 -112.62485,100.97966 l -7.78065,6.47593 3.78065,0.64827 c 2.07936,0.35656 11.20565,1.15665 20.28065,1.77799 39.30054,2.6908 66.86599,9.54806 95.49015,23.75442 21.46918,10.65529 39.93741,25.44819 48.71434,39.01977 2.2407,3.46475 4.21616,6.29955 4.38991,6.29955 0.17376,0 13.25732,-14.7375 29.0746,-32.75 z m -37.38908,-42.27941 c -2.55162,-1.01602 -3.74864,-4.55406 -2.58148,-7.63015 0.81032,-2.13562 14.60871,-17.25071 42.35266,-46.39411 11.41521,-11.99102 14.66263,-15.94633 13.09239,-15.94633 -1.14851,0 -8.50177,1.125 -16.34058,2.5 -17.25555,3.02679 -19.95652,3.09273 -22.26349,0.54356 -0.9738,-1.07604 -3.26123,-7.03854 -5.08318,-13.25 l -3.31263,-11.29356 -27.8218,28.13881 c -15.302,15.47634 -28.87622,28.6771 -30.16495,29.33503 -5.00023,2.55272 -9.86018,-1.26914 -8.52407,-6.70332 0.97601,-3.96958 62.84459,-65.94455 66.75764,-66.87243 3.9833,-0.94454 7.85797,0.6332 9.38636,3.82206 0.70479,1.4705 2.75036,7.53503 4.54571,13.47674 l 3.26428,10.80311 3.45661,-0.0666 c 1.90114,-0.0367 12.45661,-1.52798 23.45661,-3.31407 20.79876,-3.37712 25.74279,-3.40266 27.48785,-0.142 2.37659,4.4407 1.22099,6.60286 -9.73785,18.21982 -37.36109,39.60475 -56.40901,59.63618 -58.89941,61.94055 -3.43901,3.18212 -6.10367,4.01434 -9.07067,2.83293 z m 488.63008,51.27941 c -0.73419,-0.9625 -3.19529,-4 -5.46911,-6.75 -7.43913,-8.99703 -68.92864,-90.71898 -77.03242,-102.37908 l -7.90847,-11.37909 -9.5,-3.97923 c -5.225,-2.18857 -11.21733,-5.32566 -13.31628,-6.9713 -2.09895,-1.64564 -3.96903,-2.8344 -4.15573,-2.64169 -0.36453,0.37628 16.38695,25.60258 35.59451,53.60228 17.44628,25.43222 42.72983,58.9466 49.28474,65.32893 3.15244,3.06945 8.143,7.04221 11.09013,8.82836 5.44407,3.29945 17.46653,7.92537 20.87508,8.03216 1.6267,0.051 1.69725,-0.17101 0.53755,-1.69134 z m -57.91,-24.67115 c 0,-0.23164 -5.51476,-7.99414 -12.25503,-17.25 -18.02811,-24.75655 -36.57636,-51.77813 -53.76679,-78.32885 -16.20443,-25.02786 -22.37825,-33.12128 -27.14646,-35.58702 -2.6405,-1.36545 -15.95603,-4.41298 -19.28159,-4.41298 -0.8309,0 -1.50195,2.22551 -1.92957,6.39934 -0.3606,3.51964 -1.31356,8.58214 -2.11769,11.25 -0.80413,2.66786 -1.13374,4.9645 -0.73247,5.10364 4.70963,1.63303 28.70423,15.80542 32.48192,19.18542 2.72835,2.44112 8.44742,9.64112 12.70905,16 24.19946,36.10861 45.68421,65.04265 51.96962,69.98876 5.42326,4.26767 13.19047,7.97429 16.81901,8.02628 1.7875,0.0256 3.25,-0.14296 3.25,-0.37459 z m -289,-60.6292 c 6.325,-0.6153 12.89818,-1.54435 14.60707,-2.06456 3.23273,-0.9841 23.42094,-20.87275 35.19843,-34.67613 5.27831,-6.18625 6.06208,-7.58787 5.17254,-9.25 -0.91177,-1.70366 -2.11901,-1.9567 -9.26322,-1.9416 -8.99509,0.019 -19.72759,1.9458 -25.13723,4.51285 -4.43172,2.10299 -39.57759,42.01217 -39.57759,44.94154 0,0.38722 1.6875,0.45487 3.75,0.15033 2.0625,-0.30454 8.925,-1.05714 15.25,-1.67243 z m 141.3088,-36.0308 c 10.64156,-7.04868 19.4317,-24.3142 19.98122,-39.24696 l 0.20998,-5.70591 -8,-3.31553 c -37.55576,-15.56467 -81.24397,-49.9817 -111.26152,-87.65045 -24.85825,-31.19438 -35.20071,-55.57032 -34.01607,-80.17178 0.42726,-8.87286 0.84437,-10.58091 4.29261,-17.57802 9.13067,-18.5278 28.55536,-29.54743 51.98498,-29.49108 15.37008,0.037 26.98165,3.78582 41.60285,13.43168 4.96456,3.2752 7.89715,5.87232 7.89715,6.99376 0,0.98114 -1.32736,3.25349 -2.94969,5.04966 l -2.94969,3.26578 -9.80031,-5.16274 c -12.053,-6.34944 -20.65663,-9.22624 -29.80031,-9.96434 -17.99882,-1.4529 -36.64274,7.6112 -43.37259,21.08643 -8.22712,16.47321 -2.54385,41.15147 15.73867,68.34148 18.00065,26.77081 53.43631,60.65563 85.13392,81.40805 14.18183,9.28484 44,24.30539 44,22.16448 0,-0.23897 -7.26114,-7.50824 -16.13587,-16.15393 -8.87473,-8.64569 -20.65476,-21.11943 -26.17785,-27.71943 -7.10658,-8.49224 -11.4717,-12.78934 -14.93305,-14.70032 -6.71654,-3.70814 -20.71158,-15.76054 -26.90361,-23.16913 -10.71372,-12.81867 -20.84705,-30.09821 -20.84883,-35.55181 -0.002,-5.16581 6.04176,-8.01643 9.17714,-4.32874 0.81834,0.9625 2.97798,4.45 4.7992,7.75 12.18091,22.07153 32.72969,43.15609 50.57574,51.89445 5.35515,2.62216 17.24378,6.14223 18.04355,5.34246 0.23272,-0.23271 -4.59075,-5.33122 -10.71883,-11.33001 -12.33665,-12.07639 -25.94466,-28.43314 -29.1587,-35.0486 -2.02849,-4.17525 -2.03538,-4.3511 -0.2477,-6.32646 3.77152,-4.16749 5.46776,-2.96724 22.5379,15.94768 28.95163,32.08046 47.57182,46.02048 61.47123,46.02048 2.97629,0 2.47981,-0.64463 -10.97515,-14.25 -14.56235,-14.72513 -27.50517,-30.08102 -27.50517,-32.63325 0,-2.2997 3.08725,-5.11675 5.60752,-5.11675 2.40825,0 9.66473,6.84392 32.91575,31.04432 10.49123,10.9196 30.98087,27.95568 33.62287,27.95568 0.49198,0 -0.0471,-1.84565 -1.19789,-4.10144 -2.47298,-4.84743 -41.38487,-70.75485 -50.71471,-85.89856 -22.84323,-37.07793 -38.6482,-54.6113 -71.90109,-79.76403 -14.5672,-11.01874 -25.13324,-22.08697 -32.27227,-33.80615 -15.65856,-25.70451 -32.65151,-50.22593 -39.45571,-56.93596 -13.16548,-12.98325 -28.28267,-18.74868 -49.10447,-18.72756 -10.08006,0.0102 -13.43996,0.44045 -21,2.689 -13.00564,3.86821 -25.40976,10.73419 -34.19273,18.9265 -10.34257,9.64702 -10.39246,9.81239 -4.04505,13.40868 11.95642,6.77424 22.35457,21.8919 23.46264,34.11186 0.77959,8.59747 -0.24044,12.26575 -4.87469,17.53054 l -4.1018,4.65988 4.08382,3.4956 c 2.42103,2.07231 5.4242,6.21916 7.37581,10.18472 3.18749,6.47677 3.28973,7.07068 3.22063,18.70802 -0.056,9.43311 -0.75524,15.30317 -3.25,27.28435 -3.74824,18.00102 -3.98835,26.34428 -1.21981,42.38518 5.58445,32.35619 22.85051,61.6729 55.56324,94.34298 19.21871,19.19367 35.01044,30.00358 59.78141,40.9222 13.97319,6.15913 39.43791,15.17615 40.33242,14.28164 0.30769,-0.3077 -0.38451,-3.08238 -1.53822,-6.16596 -1.15372,-3.08358 -2.09767,-6.51009 -2.09767,-7.61446 0,-2.19646 4.1807,-6.91703 6.12596,-6.91703 0.66928,0 3.08077,1.94527 5.35886,4.32281 3.78599,3.95128 4.77608,6.24531 11.51981,26.69124 4.05781,12.30263 8.19179,23.18237 9.18661,24.17719 2.60578,2.60578 5.81754,2.2382 11.11756,-1.27239 z M 475.13405,326.23595 c -6.29375,-3.83754 -8.41412,-9.84953 -5.84574,-16.57473 5.49741,-14.39478 26.81414,-10.90277 26.81414,4.39257 0,10.84384 -11.8614,17.73505 -20.9684,12.18216 z m 308.65488,313.206 c -0.0224,-0.4125 -5.79242,-5.37584 -12.82219,-11.02965 -14.83645,-11.93246 -25.20852,-21.4047 -55.98994,-51.13253 -12.29411,-11.8733 -23.2597,-21.93046 -24.36799,-22.34924 -2.31926,-0.87637 -25.77909,-4.52772 -25.77909,-4.01233 0,0.95221 17.2517,18.08956 30.5,30.29784 37.43991,34.50079 61.26113,51.48641 80,57.04367 6.79699,2.01573 8.51762,2.25621 8.45921,1.18224 z m -183.39907,-5.4122 c 2.4835,-2.28921 4.16095,-4.47112 3.72766,-4.84869 -1.18958,-1.0366 -21.51244,-8.0978 -21.975,-7.63524 -0.22129,0.22129 0.79889,2.93939 2.26707,6.04022 2.68882,5.67887 7.3433,10.60591 10.0192,10.60591 0.79509,0 3.47757,-1.87299 5.96107,-4.1622 z m 192.66526,-11.99058 c -6.00242,-7.89097 -15.08923,-20.42222 -20.19292,-27.84722 -5.10369,-7.425 -10.68637,-15.00472 -12.40595,-16.84382 -1.71959,-1.8391 -7.85153,-5.71153 -13.62653,-8.60539 -8.78604,-4.40271 -11.71034,-5.37044 -17.91473,-5.92847 -4.07809,-0.3668 -8.57809,-0.95651 -10,-1.31048 -2.40882,-0.59966 -2.48289,-0.51828 -1.08527,1.1924 4.33786,5.30951 48.78072,46.76745 58.82967,54.8785 12.30941,9.93558 26.24077,19.88015 26.91109,19.20984 0.21897,-0.21897 -4.51294,-6.85438 -10.51536,-14.74536 z M 240.9485,577.23065 c 4.83558,-12.35371 8.59751,-22.65574 8.35986,-22.89339 -0.92279,-0.92279 -15.32274,13.00638 -16.91515,16.36213 -1.2115,2.55305 -1.81286,7.20928 -2.14222,16.58686 -0.42008,11.96062 0.16609,17.65946 1.42523,13.85645 0.26418,-0.79791 4.43671,-11.55833 9.27228,-23.91205 z m 17.92298,2.30058 c 5.79797,-5.96161 12.44371,-13.16157 14.7683,-15.99992 l 4.22654,-5.16064 0.5347,-10.83936 c 0.29408,-5.96165 0.16853,-13.76436 -0.279,-17.33936 l -0.81369,-6.5 -15.06969,29 c -13.6458,26.25989 -21.40892,41.92336 -21.40892,43.1963 0,1.17255 8.39931,-6.44244 18.04176,-16.35702 z m -8.57541,-35.71452 c 2.73149,-2.05455 5.79458,-4.94812 6.80686,-6.43015 2.87344,-4.20689 22.89973,-44.355 22.38265,-44.87208 -0.67157,-0.67157 -13.8981,5.03263 -23.05882,9.94457 -12.00092,6.43485 -15.11049,11.78984 -19.58824,33.7329 -1.06622,5.225 -2.25419,12.19683 -2.63993,15.49296 l -0.70134,5.99296 5.91623,-5.06281 c 3.25393,-2.78454 8.1511,-6.74379 10.88259,-8.79835 z m 51.53879,-26.26154 c 4.75237,-13.78239 8.62866,-32.00206 9.59797,-45.11322 1.04511,-14.13651 1.1986,-14.2984 -14.8421,15.65317 l -11.03073,20.59683 1.13486,10.54607 c 0.62417,5.80034 1.13486,12.83159 1.13486,15.625 0,2.79341 0.29594,6.55861 0.65764,8.36711 0.64992,3.24961 0.70814,3.18765 4.96463,-5.28315 2.36884,-4.71422 6.14114,-13.89054 8.38287,-20.39181 z m -28.00514,-32.94228 c 5.225,-2.05328 10.0464,-4.15472 10.71423,-4.66985 1.66405,-1.28357 13.39328,-20.97692 12.8295,-21.54069 -0.24911,-0.24912 -4.63586,1.58244 -9.74833,4.07012 -6.22047,3.02682 -11.509,6.55197 -15.98702,10.65636 -6.29429,5.76914 -15.80838,17.25931 -15.80838,19.09181 0,0.45678 1.9125,-0.22811 4.25,-1.52199 2.3375,-1.29389 8.525,-4.03248 13.75,-6.08576 z m 67.46371,-31.42094 c 3.73054,-9.74651 5.63143,-20.09782 6.24368,-34 l 0.55049,-12.5 -7.81292,11.85212 -7.81291,11.85213 2.21057,13.64787 c 1.21582,7.50634 2.2055,14.77288 2.19929,16.14788 -0.0152,3.35749 1.18402,1.45912 4.4218,-7 z m -35.28751,-27.2193 13.6762,-4.98162 8.5738,-9.82745 c 4.71559,-5.40509 8.5738,-10.03033 8.5738,-10.27831 0,-0.90228 -9.63186,1.62307 -14.67498,3.84759 -9.98335,4.40365 -23.62902,15.00471 -30.53054,23.71858 -2.56181,3.23455 -2.84341,3.96138 -1.28693,3.32169 1.09585,-0.45038 8.14674,-3.0606 15.66865,-5.80048 z m 48.8238,-63.65754 c 4.125,-1.57827 12.06126,-4.73053 17.63612,-7.00501 19.91184,-8.1238 46.24138,-13.31554 68.51217,-13.50942 l 11.64829,-0.10141 -1.52282,-3.00366 c -4.1772,-8.23925 -15.11737,-17.64679 -23.88775,-20.54128 -3.19088,-1.05309 -4.4955,-0.72702 -16.17839,4.04346 -24.40132,9.96382 -40.09581,18.62136 -51.85794,28.60634 -5.52389,4.68927 -14.08409,14.39018 -12.6928,14.38419 0.46372,-0.002 4.21812,-1.29494 8.34312,-2.87321 z m 89.58506,-2.23603 c 1.69678,-0.51335 4.34552,-2.24901 5.8861,-3.85703 l 2.80106,-2.92367 -2.76449,-0.69385 c -1.52047,-0.38161 -6.64422,-0.40884 -11.38611,-0.0605 -9.09175,0.66788 -42.20385,7.01419 -44.98805,8.62248 -2.13366,1.23251 46.2288,0.1901 50.45149,-1.08743 z m 217.82588,535.61728 c -1.7953,-2.73996 -1.3081,-8.53436 0.86552,-10.29389 0.67295,-0.54474 7.72495,-4.46042 15.67112,-8.70151 19.76289,-10.548 31.47572,-17.99653 49.54794,-31.50901 27.06084,-20.2332 50.22645,-41.6464 67.03759,-61.9664 5.85634,-7.07868 7.03856,-8.0336 9.94584,-8.0336 3.91765,0 7.19786,2.49204 8.05386,6.11868 0.51452,2.17989 -0.41307,3.85551 -5.5358,10 -33.05083,39.64303 -77.95931,75.38567 -125.71235,100.05441 -7.26844,3.7548 -14.34557,6.82691 -15.72695,6.82691 -1.57438,0 -3.12178,-0.93125 -4.14677,-2.49559 z M 169.65682,735.27059 c -3.50494,-2.75699 -15.8681,-22.94836 -25.50212,-41.64977 -21.29796,-41.34331 -32.94798,-76.95513 -40.21481,-122.92887 -4.474497,-28.308 -5.636137,-73.26374 -2.63564,-102 9.61409,-92.07552 51.45828,-178.95738 117.99731,-245 28.97521,-28.75904 57.20608,-49.71682 94.25166,-69.96968 35.13719,-19.20955 80.5049,-34.82111 121.7765,-41.90472 66.20975,-11.36384 127.23094,-7.85263 192,11.04785 67.75761,19.77257 119.76905,50.30139 170.85931,100.28818 59.90109,58.60732 99.48987,132.90874 114.04247,214.03837 13.40552,74.73477 5.40916,153.5386 -22.6282,223 -8.51326,21.09126 -24.59394,52.33335 -27.51319,53.45358 -3.44364,1.32144 -9.99858,-6.55239 -8.74443,-10.50387 0.34046,-1.07268 2.6817,-5.66269 5.20277,-10.20002 9.90084,-17.81918 22.48024,-47.83191 28.81544,-68.74969 C 903.57324,570.6714 907.998,506.15455 899.27859,450.46522 893.49824,413.54714 884.62794,383.5958 868.72672,347.30421 845.00513,293.16407 799.46028,237.85336 744.96576,197.00605 701.53911,164.45486 640.21265,137.74392 584.82972,127.25827 c -29.8081,-5.64357 -39.74736,-6.51542 -74.5,-6.53502 -34.38561,-0.0194 -44.25577,0.74309 -72.5,5.60066 -51.40055,8.8401 -110.99956,32.94931 -152.5,61.68986 -75.5114,52.29435 -132.33052,130.75419 -156.41152,215.98401 -13.87109,49.09394 -18.25126,103.84324 -12.11444,151.42281 7.46859,57.90499 23.31012,103.12543 55.31298,157.89373 5.34214,9.1423 9.71298,17.15026 9.71298,17.79545 0,2.0695 -4.82911,6.08218 -7.31969,6.08218 -1.32582,0 -3.50977,-0.86461 -4.85321,-1.92136 z M 845.37656,584.90378 c -0.8246,-1.2585 -2.88651,-9.23503 -4.58202,-17.72563 -1.69551,-8.49061 -3.16872,-15.47284 -3.27379,-15.51607 -0.10506,-0.0432 -5.52019,-1.03465 -12.03361,-2.20316 -14.41947,-2.58686 -17.35551,-4.67823 -15.03977,-10.71296 1.30723,-3.40659 3.95592,-3.67337 16.11608,-1.62321 6.47145,1.09106 21.44127,3.16752 33.26627,4.61435 11.825,1.44684 22.10938,3.13507 22.85418,3.75163 2.53997,2.10266 3.21585,5.60831 1.73538,9.00105 -0.76852,1.7612 -7.85307,9.85098 -15.74344,17.97729 -13.46439,13.86703 -14.57518,14.77358 -18.07307,14.75 -2.76285,-0.0186 -4.11478,-0.61703 -5.22621,-2.31329 z m 17.74763,-29.8533 c -9.84262,-1.0896 -13.26989,-0.98524 -12.85496,0.39147 0.2072,0.6875 0.9479,4.83197 1.64598,9.20993 l 1.26925,7.95993 7.8671,-8.45993 7.8671,-8.45993 z m -718.34432,19.04833 c -1.64209,-3.06828 -0.53865,-5.9263 3.9986,-10.35681 l 4.03322,-3.93834 -8.49098,-8.67709 c -9.93998,-10.15783 -10.91818,-13.5682 -4.81343,-16.78133 3.11121,-1.63753 5.02299,-0.65474 12.07244,6.20613 4.28311,4.16853 6.25,5.53426 6.25,4.33974 0,-0.95869 1.31377,-4.64053 2.91948,-8.18186 3.12375,-6.88926 5.91438,-8.74695 9.91966,-6.60339 3.26918,1.74961 3.30101,3.99392 0.21373,15.0681 -1.6072,5.7651 -2.82052,10.58368 -2.69625,10.70794 0.12426,0.12427 4.03236,-0.38568 8.68466,-1.13322 4.65229,-0.74754 11.96312,-1.68307 16.24627,-2.07895 6.7029,-0.61954 8.06088,-0.47243 9.75,1.0562 2.70208,2.44535 2.55265,7.04465 -0.28755,8.85054 -1.2375,0.78684 -10.64492,3.28181 -20.90538,5.54436 -10.26045,2.26255 -21.2434,5.00415 -24.40655,6.09243 -7.52611,2.58936 -11.05821,2.55699 -12.48792,-0.11445 z M 779.92339,561.5839 c -3.18535,-4.04951 -3.44796,-6.42103 -1.95482,-17.6529 1.78565,-13.43225 1.81798,-55.27396 0.0516,-66.73905 -7.45189,-48.36725 -28.01977,-95.6913 -57.80419,-133 -9.10665,-11.40721 -26.54143,-28.64609 -39.38623,-38.94368 -37.01263,-29.67277 -81.26905,-49.25603 -131.5,-58.18814 -11.41941,-2.03061 -16.28277,-2.3151 -40,-2.33992 -29.40017,-0.0308 -37.10978,0.80019 -60.56589,6.52797 -63.28164,15.45281 -111.78946,45.83107 -151.31438,94.76138 -28.19762,34.90755 -47.36267,78.25442 -55.08911,124.59869 -1.68573,10.11129 -3.04643,15.49619 -4.25243,16.82879 -2.07028,2.28765 -6.54865,4.75491 -8.6307,4.75491 -4.18779,0 -3.87684,-12.8093 0.88926,-36.63254 7.6188,-38.08233 24.30614,-75.48367 49.2426,-110.36746 26.19093,-36.63868 59.16339,-64.58949 99.71545,-84.52893 34.76707,-17.09497 68.99256,-26.63924 109.55708,-30.55159 14.16905,-1.36657 44.19846,-0.0932 62.94812,2.66917 37.07875,5.46286 77.02846,20.32565 112.25743,41.76397 56.52637,34.3987 99.64046,93.08863 120.21668,163.64738 9.89522,33.93209 12.72732,78.67783 7.04127,111.24832 -2.29066,13.12121 -6.84439,17.96276 -11.42171,12.14363 z m 39.90633,-84.39195 c -1.1,-1.1 -2,-2.84453 -2,-3.87674 0,-1.0322 4.28281,-8.29939 9.51737,-16.1493 5.23455,-7.84991 9.31859,-14.47133 9.07565,-14.71428 -0.24294,-0.24294 -6.53083,0.56406 -13.97308,1.79333 -12.72607,2.10203 -13.68279,2.13583 -16.07565,0.56797 -1.91284,-1.25335 -2.54429,-2.52428 -2.54429,-5.12098 0,-4.61644 2.21372,-5.87787 14,-7.97747 5.225,-0.93078 18.21964,-3.67913 28.87697,-6.10743 10.65734,-2.4283 20.63769,-4.4151 22.17857,-4.4151 3.60804,0 5.94446,2.37727 5.94446,6.04838 0,4.1279 -3.05512,5.74454 -15.43879,8.1696 -5.80867,1.13749 -10.56121,2.42454 -10.56121,2.86009 0,0.43556 5.0625,4.71972 11.25,9.52036 18.45722,14.32024 20.32824,16.75832 15.92126,20.74658 -3.80368,3.44228 -7.78449,2.16571 -18.24134,-5.84966 -5.38481,-4.12755 -10.43186,-7.75073 -11.21567,-8.05151 -0.96014,-0.36844 -3.47606,2.44759 -7.7111,8.63091 -11.15514,16.28694 -14.32132,18.60708 -19.00315,13.92525 z m -632,-13.63821 c -7.975,-1.87508 -21.32581,-4.67276 -29.66846,-6.21707 -17.74046,-3.28395 -20.33154,-4.55321 -20.33154,-9.95956 0,-3.12248 0.72879,-4.47348 4.25,-7.87848 2.3375,-2.26036 7.79524,-6.40405 12.12831,-9.20821 13.21627,-8.55295 17.55555,-7.08754 29.0449,9.80864 3.89223,5.72391 7.75179,10.76868 8.57679,11.21061 0.825,0.44192 4.75105,1.30995 8.72455,1.92895 11.09006,1.72762 15.44042,6.78836 10.27545,11.95333 -2.66519,2.66519 -5.57991,2.45759 -23,-1.63821 z m -15.63815,-17.61179 c -0.4159,-0.6875 -1.94893,-3.14254 -3.40673,-5.45565 l -2.65055,-4.20566 -6.15229,3.63954 c -3.38375,2.00174 -6.15228,3.9373 -6.15228,4.30125 0,0.36394 3.4875,1.11158 7.75,1.66143 11.39203,1.46954 11.46534,1.46995 10.61185,0.0591 z m 651.18257,-74.99004 c -1.3323,-1.90213 -1.46851,-4.46665 -0.90295,-17 0.36633,-8.11798 0.32477,-14.75996 -0.0924,-14.75996 -0.41712,0 -9.31344,4.31336 -19.76961,9.58523 -24.08604,12.14391 -26.29959,12.95924 -29.49637,10.86463 -1.85344,-1.21442 -2.33029,-2.29978 -2.09191,-4.76142 0.29678,-3.06459 1.06675,-3.57686 19.82304,-13.18844 10.73285,-5.5 23.63571,-12.22551 28.67303,-14.94558 8.109,-4.37874 9.44833,-4.81365 11.68521,-3.79446 4.16509,1.89774 4.96704,7.21284 4.18548,27.74004 -0.78002,20.48692 -1.40849,22.5 -7.02434,22.5 -2.4088,0 -3.88423,-0.66243 -4.98923,-2.24004 z m -602.97838,-8.80464 -15.93397,-10.03357 -10.82289,2.07064 c -11.08547,2.12087 -12.95043,1.95219 -15.75309,-1.42481 -1.60726,-1.93662 -0.62885,-6.19068 1.71194,-7.44343 0.95943,-0.51347 5.72278,-1.62013 10.58523,-2.45923 4.86244,-0.83911 9.07219,-1.75703 9.35499,-2.03983 0.28279,-0.2828 -1.56087,-4.3209 -4.09704,-8.97356 -2.53616,-4.65266 -4.61121,-9.55787 -4.61121,-10.90047 0,-2.85021 2.42149,-5.32616 6.10872,-6.2461 2.4795,-0.61862 2.9592,-0.0157 9.68387,12.17209 3.89133,7.05262 7.62727,14.06073 8.30208,15.57357 0.82083,1.84021 5.76444,5.71243 14.93621,11.69921 14.45727,9.43682 16.21321,11.50251 13.41196,15.77775 -2.63316,4.01872 -5.93154,2.89812 -22.8768,-7.77226 z m 514.05567,-57.20532 c -1.19228,-1.88336 -2.92509,-13.18038 -6.3655,-41.5 -0.28397,-2.3375 -0.79529,-4.22848 -1.13626,-4.20219 -0.34097,0.0263 -3.54495,3.67021 -7.11995,8.09757 -3.575,4.42737 -7.77203,9.13085 -9.32672,10.45219 -3.71538,3.15769 -8.97128,3.24276 -11.11658,0.17992 -2.48868,-3.5531 -1.88385,-5.43771 3.70232,-11.53618 2.89246,-3.15772 8.60169,-9.79131 12.68718,-14.74131 10.58072,-12.81965 24.37426,-28.87118 25.55187,-29.73469 1.57081,-1.15183 5.97776,-0.88948 7.30193,0.43469 2.69601,2.69601 1.25372,6.74933 -5.8,16.3 -6.23774,8.44584 -8.46575,12.43791 -6.25,11.19852 0.4125,-0.23073 8.70456,-0.11473 18.42681,0.25779 18.57202,0.71161 20.83749,1.3013 20.80788,5.41614 -0.0359,4.9905 -0.68244,5.15289 -19.01343,4.77555 l -17.10015,-0.35199 0.57105,3.35199 c 1.21985,7.16041 4.55784,34.23459 4.55784,36.96837 0,5.94395 -7.44459,9.26776 -10.37829,4.63363 z m -451.23765,-12.5 c -4.32396,-4.8125 -14.27926,-15.37514 -22.1229,-23.47253 -18.59589,-19.1975 -18.49896,-17.37077 -1.78476,-33.63612 6.86203,-6.67774 13.2869,-12.14135 14.2775,-12.14135 3.25422,0 6.2461,2.91239 6.2461,6.08016 0,2.35155 -1.68751,4.72451 -8.13782,11.4433 l -8.13782,8.47654 6.88782,0.0513 c 13.17296,0.0982 20.49039,1.3571 22.53013,3.87607 2.49287,3.07856 2.34266,4.67852 -0.72746,7.74865 -2.50734,2.50733 -2.84251,2.56427 -11.13396,1.89151 l -8.5488,-0.69365 3.207,4.04916 c 1.76384,2.22704 3.62891,4.30992 4.14459,4.62863 0.51568,0.31871 5.20781,5.30856 10.42696,11.08857 10.06842,11.15039 11.42885,14.29452 7.66062,17.70472 -3.81048,3.44844 -6.45347,2.18032 -14.7872,-7.09501 z m 96.11594,-67.88099 c -9.9,-5.28162 -18.7875,-10.29505 -19.75,-11.14096 -2.68144,-2.35664 -2.12267,-5.34139 2.27323,-12.14269 2.21277,-3.42359 4.12527,-6.65233 4.25,-7.17497 0.12472,-0.52265 -2.36684,-2.01854 -5.5368,-3.32421 -11.20243,-4.61414 -13.8892,-8.21425 -10.01779,-13.42323 2.84601,-3.8293 6.11007,-3.76468 14.8965,0.2949 4.2595,1.96801 8.00112,3.22866 8.3147,2.80145 0.31359,-0.42721 3.19676,-4.82282 6.40705,-9.76802 6.24882,-9.62583 8.01085,-11.49128 10.85424,-11.49128 2.39002,0 5.80887,3.49818 5.80887,5.94365 0,1.069 -2.52962,6.26438 -5.62138,11.54528 -3.09176,5.28091 -5.45426,9.74402 -5.25,9.91805 0.20426,0.17402 4.24198,1.76313 8.97272,3.53135 7.26091,2.71394 8.83508,3.70948 10.10129,6.38831 1.89168,4.00211 0.26354,10.00413 -2.83936,10.46705 -1.08269,0.16153 -6.85483,-1.75349 -12.82697,-4.2556 -5.97215,-2.5021 -10.93169,-4.43426 -11.02121,-4.29368 -0.0895,0.14057 -1.14204,1.67506 -2.33893,3.40996 -1.19689,1.73491 -2.17616,3.86789 -2.17616,4.73997 0,0.99496 3.34604,3.26607 8.98265,6.09695 20.06524,10.07736 24.20351,14.32256 19.01735,19.50871 -1.1,1.1 -2.5625,1.99369 -3.25,1.98597 -0.6875,-0.008 -9.35,-4.33535 -19.25,-9.61696 z m 225.07143,5.05956 c -2.22899,-2.22899 -2.09792,-2.91587 3.07087,-16.09335 2.55327,-6.50937 7.73014,-20.75579 11.50415,-31.65871 7.86493,-22.72134 8.13188,-23.31268 10.92415,-24.19892 2.70408,-0.85824 3.86787,0.24891 16.84204,16.02241 17.9574,21.83193 18.49805,22.87435 13.5464,26.1188 -1.99694,1.30844 -3.04872,1.43355 -4.91254,0.58434 -2.51113,-1.14415 -9.09485,-8.66682 -16.5465,-18.90634 -2.475,-3.40096 -4.80993,-6.20905 -5.18873,-6.24019 -0.3788,-0.0311 -0.98435,1.91478 -1.34567,4.32426 -0.64247,4.28429 -0.43125,4.71834 9.58218,19.69057 5.63152,8.42034 10.45593,16.13875 10.72091,17.15202 0.63399,2.4244 -2.47946,5.77654 -5.36523,5.77654 -2.38233,0 -6.67564,-4.99102 -15.26867,-17.75 -2.31512,-3.4375 -4.36406,-6.25 -4.5532,-6.25 -0.18913,0 -2.98487,6.55549 -6.21274,14.56776 -3.22786,8.01227 -6.67388,15.43727 -7.6578,16.5 -2.15974,2.33271 -6.97753,2.52291 -9.13962,0.36081 z M 480.72162,211.56169 c -1.07415,-1.29426 -1.357,-8.21627 -1.37245,-33.5863 l -0.0195,-31.95605 2.36078,-1.91369 c 1.29844,-1.05254 3.19353,-1.9137 4.21133,-1.9137 1.06982,0 8.55239,6.82494 17.73586,16.17706 l 15.88531,16.17706 0.69083,-14.92706 c 0.62004,-13.39737 0.9033,-15.10639 2.76415,-16.67706 4.62841,-3.90666 9.82509,-0.88459 10.11618,5.88294 0.0915,2.12689 0.0694,16.35456 -0.049,31.61706 -0.20384,26.26152 -0.32267,27.85728 -2.21539,29.75 -1.1,1.1 -3.125,2 -4.5,2 -4.57096,0 -6.49955,-3.18776 -6.50374,-10.75 -0.005,-8.54577 -0.59521,-9.49627 -15.62799,-25.15632 l -11.90938,-12.40632 -0.18972,22.78369 c -0.16522,19.84065 -0.40864,23.02558 -1.88444,24.65632 -2.10425,2.32517 -7.64682,2.46669 -9.49283,0.24237 z"
       id="path1" />
  </g>
</svg>
